<svg width="83" height="29" viewBox="0 0 83 29" fill="none" xmlns="http://www.w3.org/2000/svg">
<path d="M0 15.0505C0 7.35267 18.5323 1.11229 41.3923 1.11229C64.2522 1.11229 82.7847 7.35267 82.7847 15.0505C82.7847 22.7483 64.2522 28.9888 41.3923 28.9888C18.5323 28.9888 0 22.7483 0 15.0505ZM41.3923 27.4096C61.6621 27.4096 78.0949 21.8761 78.0949 15.0505C78.0949 8.22487 61.6621 2.69151 41.3923 2.69151C21.1224 2.69151 4.68967 8.22487 4.68967 15.0505C4.68967 21.8761 21.1224 27.4096 41.3923 27.4096ZM41.3923 26.0044C59.3579 26.0044 73.9223 21.1001 73.9223 15.0505C73.9223 9.00093 59.3579 4.09656 41.3923 4.09656C23.4269 4.09656 8.86252 9.00093 8.86252 15.0505C8.86252 21.1001 23.4269 26.0044 41.3923 26.0044ZM13.5522 15.0505C13.5522 9.87297 26.0168 5.67577 41.3923 5.67577C56.7677 5.67577 69.2326 9.87297 69.2326 15.0505C69.2326 20.228 56.7677 24.4253 41.3923 24.4253C26.0168 24.4253 13.5522 20.228 13.5522 15.0505ZM41.3923 23.0201C54.463 23.0201 65.06 19.4519 65.06 15.0505C65.06 10.649 54.463 7.08082 41.3923 7.08082C28.3215 7.08082 17.7249 10.649 17.7249 15.0505C17.7249 19.4519 28.3215 23.0201 41.3923 23.0201ZM22.4147 15.0505C22.4147 11.5212 30.9114 8.66019 41.3923 8.66019C51.8729 8.66019 60.3698 11.5212 60.3698 15.0505C60.3698 18.5798 51.8729 21.4409 41.3923 21.4409C30.9114 21.4409 22.4147 18.5798 22.4147 15.0505ZM41.3923 20.0358C49.5687 20.0358 56.1972 17.8038 56.1972 15.0505C56.1972 12.2973 49.5687 10.0652 41.3923 10.0652C33.216 10.0652 26.5876 12.2973 26.5876 15.0505C26.5876 17.8038 33.216 20.0358 41.3923 20.0358ZM31.2772 15.0505C31.2772 13.1693 35.806 11.6445 41.3923 11.6445C46.9785 11.6445 51.5074 13.1693 51.5074 15.0505C51.5074 16.9316 46.9785 18.4566 41.3923 18.4566C35.806 18.4566 31.2772 16.9316 31.2772 15.0505ZM41.3923 17.0515C44.6741 17.0515 47.3348 16.1556 47.3348 15.0505C47.3348 13.9454 44.6741 13.0495 41.3923 13.0495C38.1106 13.0495 35.4501 13.9454 35.4501 15.0505C35.4501 16.1556 38.1106 17.0515 41.3923 17.0515Z" fill="#FF3D00"/>
</svg>
